# xmcd
#
# Track frame offsets:
#	150
#	14861
#	29551
#	47831
#	61423
#	77481
#	91471
#	105793
#	122518
#	138588
#	153256
#	165721
#	180426
#	192623
#	203873
#	216251
#
# Disc length: 3086 seconds
#
# Revision: 1
# Processed by: cddbd v1.4PL0 Copyright (c) Steve Scherf et al.
# Submitted via: EasyCDDAExtractor 5.0.7
#
DISCID=dd0c0c10
DTITLE=Nilsson Freire - O melhor do forro
DYEAR=2003
DGENRE=Forro
TTITLE0=Libera o toim
TTITLE1=Prenda minha
TTITLE2=Forro das gordinhas
TTITLE3=No sobe e desse da bolsa
TTITLE4=Labutando no fandanfo
TTITLE5=Vitrine
TTITLE6=Ultimo trem
TTITLE7=Quase morri de amor
TTITLE8=Forro minas goias
TTITLE9=Do lado de ca
TTITLE10=Corro furado
TTITLE11=Sete um
TTITLE12=Morena bem querer
TTITLE13=Tudo e baiao
TTITLE14=Papagaio louro
TTITLE15=Homenagem ao boy garantido e caprichoso
EXTD=
EXTT0=
EXTT1=
EXTT2=
EXTT3=
EXTT4=
EXTT5=
EXTT6=
EXTT7=
EXTT8=
EXTT9=
EXTT10=
EXTT11=
EXTT12=
EXTT13=
EXTT14=
EXTT15=
PLAYORDER=
